<mxfile host="app.diagrams.net" modified="2024-02-15T09:33:01.092Z" agent="Mozilla/5.0 (Macintosh; Intel Mac OS X 10_15_7) AppleWebKit/537.36 (KHTML, like Gecko) Chrome/121.0.0.0 Safari/537.36" etag="CxJVH2dYAfXRvwQ7UyzN" version="23.1.4" type="github">
  <diagram name="Page-1" id="SWbTBzbRtzj6tkZHNBgE">
    <mxGraphModel dx="719" dy="501" grid="1" gridSize="10" guides="1" tooltips="1" connect="1" arrows="1" fold="1" page="1" pageScale="1" pageWidth="827" pageHeight="1169" math="0" shadow="0">
      <root>
        <mxCell id="0" />
        <mxCell id="1" parent="0" />
        <mxCell id="O_M7rHwnyh_Y72QgIjVn-2" value="" style="rounded=0;whiteSpace=wrap;html=1;" vertex="1" parent="1">
          <mxGeometry x="500" y="230" width="80" height="30" as="geometry" />
        </mxCell>
        <mxCell id="O_M7rHwnyh_Y72QgIjVn-3" value="car" style="text;html=1;align=center;verticalAlign=middle;whiteSpace=wrap;rounded=0;" vertex="1" parent="1">
          <mxGeometry x="510" y="230" width="60" height="30" as="geometry" />
        </mxCell>
        <mxCell id="O_M7rHwnyh_Y72QgIjVn-4" value="" style="endArrow=none;html=1;rounded=0;" edge="1" parent="1">
          <mxGeometry width="50" height="50" relative="1" as="geometry">
            <mxPoint x="540" y="230" as="sourcePoint" />
            <mxPoint x="540" y="160" as="targetPoint" />
          </mxGeometry>
        </mxCell>
        <mxCell id="O_M7rHwnyh_Y72QgIjVn-5" value="" style="endArrow=none;html=1;rounded=0;" edge="1" parent="1">
          <mxGeometry width="50" height="50" relative="1" as="geometry">
            <mxPoint x="540" y="230" as="sourcePoint" />
            <mxPoint x="600" y="190" as="targetPoint" />
          </mxGeometry>
        </mxCell>
        <mxCell id="O_M7rHwnyh_Y72QgIjVn-6" value="" style="endArrow=none;html=1;rounded=0;" edge="1" parent="1">
          <mxGeometry width="50" height="50" relative="1" as="geometry">
            <mxPoint x="480" y="190" as="sourcePoint" />
            <mxPoint x="540" y="230" as="targetPoint" />
          </mxGeometry>
        </mxCell>
        <mxCell id="O_M7rHwnyh_Y72QgIjVn-7" value="" style="ellipse;whiteSpace=wrap;html=1;" vertex="1" parent="1">
          <mxGeometry x="505" y="130" width="70" height="30" as="geometry" />
        </mxCell>
        <mxCell id="O_M7rHwnyh_Y72QgIjVn-8" value="" style="ellipse;whiteSpace=wrap;html=1;" vertex="1" parent="1">
          <mxGeometry x="450" y="160" width="70" height="30" as="geometry" />
        </mxCell>
        <mxCell id="O_M7rHwnyh_Y72QgIjVn-9" value="" style="ellipse;whiteSpace=wrap;html=1;" vertex="1" parent="1">
          <mxGeometry x="560" y="160" width="70" height="30" as="geometry" />
        </mxCell>
        <mxCell id="O_M7rHwnyh_Y72QgIjVn-10" value="year" style="text;html=1;align=center;verticalAlign=middle;whiteSpace=wrap;rounded=0;" vertex="1" parent="1">
          <mxGeometry x="455" y="160" width="60" height="30" as="geometry" />
        </mxCell>
        <mxCell id="O_M7rHwnyh_Y72QgIjVn-12" value="&lt;u&gt;license&lt;/u&gt;" style="text;html=1;align=center;verticalAlign=middle;whiteSpace=wrap;rounded=0;" vertex="1" parent="1">
          <mxGeometry x="510" y="130" width="60" height="30" as="geometry" />
        </mxCell>
        <mxCell id="O_M7rHwnyh_Y72QgIjVn-13" value="model" style="text;html=1;align=center;verticalAlign=middle;whiteSpace=wrap;rounded=0;" vertex="1" parent="1">
          <mxGeometry x="565" y="160" width="60" height="30" as="geometry" />
        </mxCell>
        <mxCell id="O_M7rHwnyh_Y72QgIjVn-14" value="" style="endArrow=none;html=1;rounded=0;" edge="1" parent="1">
          <mxGeometry width="50" height="50" relative="1" as="geometry">
            <mxPoint x="540" y="320" as="sourcePoint" />
            <mxPoint x="540" y="260" as="targetPoint" />
          </mxGeometry>
        </mxCell>
        <mxCell id="O_M7rHwnyh_Y72QgIjVn-15" value="" style="rhombus;whiteSpace=wrap;html=1;" vertex="1" parent="1">
          <mxGeometry x="480" y="320" width="120" height="40" as="geometry" />
        </mxCell>
        <mxCell id="O_M7rHwnyh_Y72QgIjVn-17" value="participated" style="text;html=1;align=center;verticalAlign=middle;whiteSpace=wrap;rounded=0;" vertex="1" parent="1">
          <mxGeometry x="510" y="325" width="60" height="30" as="geometry" />
        </mxCell>
        <mxCell id="O_M7rHwnyh_Y72QgIjVn-19" value="" style="endArrow=none;html=1;rounded=0;exitX=0.5;exitY=1;exitDx=0;exitDy=0;" edge="1" parent="1" source="O_M7rHwnyh_Y72QgIjVn-15">
          <mxGeometry width="50" height="50" relative="1" as="geometry">
            <mxPoint x="540" y="380" as="sourcePoint" />
            <mxPoint x="540" y="390" as="targetPoint" />
            <Array as="points">
              <mxPoint x="540" y="390" />
            </Array>
          </mxGeometry>
        </mxCell>
        <mxCell id="O_M7rHwnyh_Y72QgIjVn-20" value="" style="ellipse;whiteSpace=wrap;html=1;" vertex="1" parent="1">
          <mxGeometry x="490" y="390" width="110" height="30" as="geometry" />
        </mxCell>
        <mxCell id="O_M7rHwnyh_Y72QgIjVn-21" value="damage-amount" style="text;html=1;align=center;verticalAlign=middle;whiteSpace=wrap;rounded=0;" vertex="1" parent="1">
          <mxGeometry x="495" y="390" width="100" height="30" as="geometry" />
        </mxCell>
        <mxCell id="O_M7rHwnyh_Y72QgIjVn-22" value="" style="endArrow=none;html=1;rounded=0;" edge="1" parent="1">
          <mxGeometry width="50" height="50" relative="1" as="geometry">
            <mxPoint x="600" y="340" as="sourcePoint" />
            <mxPoint x="750" y="260" as="targetPoint" />
          </mxGeometry>
        </mxCell>
        <mxCell id="O_M7rHwnyh_Y72QgIjVn-25" value="" style="rounded=0;whiteSpace=wrap;html=1;" vertex="1" parent="1">
          <mxGeometry x="700" y="230" width="90" height="30" as="geometry" />
        </mxCell>
        <mxCell id="O_M7rHwnyh_Y72QgIjVn-26" value="person" style="text;html=1;align=center;verticalAlign=middle;whiteSpace=wrap;rounded=0;" vertex="1" parent="1">
          <mxGeometry x="715" y="230" width="60" height="30" as="geometry" />
        </mxCell>
        <mxCell id="O_M7rHwnyh_Y72QgIjVn-27" value="driver" style="text;html=1;align=center;verticalAlign=middle;whiteSpace=wrap;rounded=0;" vertex="1" parent="1">
          <mxGeometry x="670" y="310" width="60" height="25" as="geometry" />
        </mxCell>
        <mxCell id="O_M7rHwnyh_Y72QgIjVn-28" value="" style="rhombus;whiteSpace=wrap;html=1;" vertex="1" parent="1">
          <mxGeometry x="610" y="230" width="60" height="30" as="geometry" />
        </mxCell>
        <mxCell id="O_M7rHwnyh_Y72QgIjVn-31" value="owns" style="text;html=1;align=center;verticalAlign=middle;whiteSpace=wrap;rounded=0;" vertex="1" parent="1">
          <mxGeometry x="610" y="230" width="60" height="30" as="geometry" />
        </mxCell>
        <mxCell id="O_M7rHwnyh_Y72QgIjVn-32" value="" style="endArrow=none;html=1;rounded=0;entryX=0;entryY=0.5;entryDx=0;entryDy=0;" edge="1" parent="1" target="O_M7rHwnyh_Y72QgIjVn-31">
          <mxGeometry width="50" height="50" relative="1" as="geometry">
            <mxPoint x="580" y="244.66" as="sourcePoint" />
            <mxPoint x="620" y="244.66" as="targetPoint" />
            <Array as="points" />
          </mxGeometry>
        </mxCell>
        <mxCell id="O_M7rHwnyh_Y72QgIjVn-33" value="" style="endArrow=none;html=1;rounded=0;entryX=0;entryY=0.5;entryDx=0;entryDy=0;exitX=1;exitY=0.5;exitDx=0;exitDy=0;" edge="1" parent="1" source="O_M7rHwnyh_Y72QgIjVn-31" target="O_M7rHwnyh_Y72QgIjVn-25">
          <mxGeometry width="50" height="50" relative="1" as="geometry">
            <mxPoint x="670" y="240" as="sourcePoint" />
            <mxPoint x="720" y="190" as="targetPoint" />
          </mxGeometry>
        </mxCell>
        <mxCell id="O_M7rHwnyh_Y72QgIjVn-34" value="" style="endArrow=none;html=1;rounded=0;" edge="1" parent="1">
          <mxGeometry width="50" height="50" relative="1" as="geometry">
            <mxPoint x="750" y="230" as="sourcePoint" />
            <mxPoint x="800" y="200" as="targetPoint" />
          </mxGeometry>
        </mxCell>
        <mxCell id="O_M7rHwnyh_Y72QgIjVn-35" value="" style="endArrow=none;html=1;rounded=0;" edge="1" parent="1">
          <mxGeometry width="50" height="50" relative="1" as="geometry">
            <mxPoint x="750" y="230" as="sourcePoint" />
            <mxPoint x="750" y="170" as="targetPoint" />
          </mxGeometry>
        </mxCell>
        <mxCell id="O_M7rHwnyh_Y72QgIjVn-36" value="" style="endArrow=none;html=1;rounded=0;exitX=0.574;exitY=-0.041;exitDx=0;exitDy=0;exitPerimeter=0;" edge="1" parent="1" source="O_M7rHwnyh_Y72QgIjVn-26">
          <mxGeometry width="50" height="50" relative="1" as="geometry">
            <mxPoint x="750" y="240" as="sourcePoint" />
            <mxPoint x="700" y="200" as="targetPoint" />
          </mxGeometry>
        </mxCell>
        <mxCell id="O_M7rHwnyh_Y72QgIjVn-39" value="" style="ellipse;whiteSpace=wrap;html=1;" vertex="1" parent="1">
          <mxGeometry x="715" y="140" width="70" height="30" as="geometry" />
        </mxCell>
        <mxCell id="O_M7rHwnyh_Y72QgIjVn-40" value="address" style="text;html=1;align=center;verticalAlign=middle;whiteSpace=wrap;rounded=0;" vertex="1" parent="1">
          <mxGeometry x="720" y="140" width="60" height="30" as="geometry" />
        </mxCell>
        <mxCell id="O_M7rHwnyh_Y72QgIjVn-43" value="" style="ellipse;whiteSpace=wrap;html=1;" vertex="1" parent="1">
          <mxGeometry x="660" y="170" width="72.5" height="30" as="geometry" />
        </mxCell>
        <mxCell id="O_M7rHwnyh_Y72QgIjVn-44" value="" style="ellipse;whiteSpace=wrap;html=1;" vertex="1" parent="1">
          <mxGeometry x="775" y="170" width="70" height="30" as="geometry" />
        </mxCell>
        <mxCell id="O_M7rHwnyh_Y72QgIjVn-46" value="&lt;u&gt;driver-id&lt;/u&gt;" style="text;html=1;align=center;verticalAlign=middle;whiteSpace=wrap;rounded=0;" vertex="1" parent="1">
          <mxGeometry x="666.25" y="170" width="60" height="30" as="geometry" />
        </mxCell>
        <mxCell id="O_M7rHwnyh_Y72QgIjVn-47" value="name" style="text;html=1;align=center;verticalAlign=middle;whiteSpace=wrap;rounded=0;" vertex="1" parent="1">
          <mxGeometry x="780" y="170" width="60" height="30" as="geometry" />
        </mxCell>
        <mxCell id="O_M7rHwnyh_Y72QgIjVn-48" value="" style="ellipse;whiteSpace=wrap;html=1;" vertex="1" parent="1">
          <mxGeometry x="380" y="260" width="110" height="30" as="geometry" />
        </mxCell>
        <mxCell id="O_M7rHwnyh_Y72QgIjVn-49" value="" style="rounded=0;whiteSpace=wrap;html=1;" vertex="1" parent="1">
          <mxGeometry x="320" y="325" width="80" height="30" as="geometry" />
        </mxCell>
        <mxCell id="O_M7rHwnyh_Y72QgIjVn-50" value="" style="endArrow=none;html=1;rounded=0;" edge="1" parent="1">
          <mxGeometry width="50" height="50" relative="1" as="geometry">
            <mxPoint x="360" y="325" as="sourcePoint" />
            <mxPoint x="430" y="290" as="targetPoint" />
          </mxGeometry>
        </mxCell>
        <mxCell id="O_M7rHwnyh_Y72QgIjVn-51" value="" style="endArrow=none;html=1;rounded=0;" edge="1" parent="1">
          <mxGeometry width="50" height="50" relative="1" as="geometry">
            <mxPoint x="359.68" y="325" as="sourcePoint" />
            <mxPoint x="360" y="240" as="targetPoint" />
          </mxGeometry>
        </mxCell>
        <mxCell id="O_M7rHwnyh_Y72QgIjVn-52" value="" style="ellipse;whiteSpace=wrap;html=1;" vertex="1" parent="1">
          <mxGeometry x="320" y="220" width="80" height="25" as="geometry" />
        </mxCell>
        <mxCell id="O_M7rHwnyh_Y72QgIjVn-53" value="" style="endArrow=none;html=1;rounded=0;" edge="1" parent="1">
          <mxGeometry width="50" height="50" relative="1" as="geometry">
            <mxPoint x="360" y="325" as="sourcePoint" />
            <mxPoint x="290" y="300" as="targetPoint" />
          </mxGeometry>
        </mxCell>
        <mxCell id="O_M7rHwnyh_Y72QgIjVn-54" value="" style="ellipse;whiteSpace=wrap;html=1;" vertex="1" parent="1">
          <mxGeometry x="250" y="270" width="70" height="30" as="geometry" />
        </mxCell>
        <mxCell id="O_M7rHwnyh_Y72QgIjVn-55" value="" style="endArrow=none;html=1;rounded=0;exitX=1;exitY=0.5;exitDx=0;exitDy=0;" edge="1" parent="1" source="O_M7rHwnyh_Y72QgIjVn-49">
          <mxGeometry width="50" height="50" relative="1" as="geometry">
            <mxPoint x="430" y="390" as="sourcePoint" />
            <mxPoint x="480" y="340" as="targetPoint" />
          </mxGeometry>
        </mxCell>
        <mxCell id="O_M7rHwnyh_Y72QgIjVn-56" value="accident" style="text;html=1;align=center;verticalAlign=middle;whiteSpace=wrap;rounded=0;" vertex="1" parent="1">
          <mxGeometry x="330" y="325" width="60" height="30" as="geometry" />
        </mxCell>
        <mxCell id="O_M7rHwnyh_Y72QgIjVn-57" value="location" style="text;html=1;align=center;verticalAlign=middle;whiteSpace=wrap;rounded=0;" vertex="1" parent="1">
          <mxGeometry x="255" y="270" width="60" height="30" as="geometry" />
        </mxCell>
        <mxCell id="O_M7rHwnyh_Y72QgIjVn-58" value="date" style="text;html=1;align=center;verticalAlign=middle;whiteSpace=wrap;rounded=0;" vertex="1" parent="1">
          <mxGeometry x="330" y="217.5" width="60" height="30" as="geometry" />
        </mxCell>
        <mxCell id="O_M7rHwnyh_Y72QgIjVn-59" value="report-number" style="text;html=1;align=center;verticalAlign=middle;whiteSpace=wrap;rounded=0;" vertex="1" parent="1">
          <mxGeometry x="395" y="260" width="85" height="30" as="geometry" />
        </mxCell>
      </root>
    </mxGraphModel>
  </diagram>
</mxfile>
